<svg width="64" height="64"
    xmlns="http://www.w3.org/2000/svg" preserveAspectRatio="xMidYMid meet">
    <style>
    path { fill: #222; }
    @media (prefers-color-scheme: dark) {
      path { fill: #ffffff; }
    }
    </style>
    <path fill="currentColor" d="m57.931,20.028c1.732,-1.752 2.727,-4.077 2.727,-6.51c0,-5.256 -4.521,-9.532 -10.078,-9.532c-4.459,0 -8.332,2.818 -9.62,6.707a49.242,49.242 0 0 0 -1.327,-0.161c-1.929,-3.824 -5.758,-6.142 -5.935,-6.247l-3.831,-2.285l0.548,2.887a10.473,10.473 0 0 0 -1.774,-0.597l-5.852,-1.32l3.187,3.665l-0.073,0c-0.312,0 -0.487,0.018 -0.487,0.018l-4.586,0.432a10.345,10.345 0 0 0 -7.407,-3.099c-5.557,0 -10.078,4.276 -10.078,9.532c0,2.433 0.994,4.757 2.725,6.509c-2.736,4.258 -4.07,10.033 -4.07,17.576c0,17.241 19.539,24.397 30,24.397s30,-7.156 30,-24.397c0,-7.543 -1.334,-13.317 -4.069,-17.575m-33.55,-9.907c0.143,0.104 0.279,0.228 0.41,0.369c-0.602,0.06 -1.185,0.127 -1.752,0.203a9.287,9.287 0 0 0 -1.279,-2.499l2.621,1.927m7.619,49.945c-9.127,0 -28,-6.181 -28,-22.464c0,-8.277 1.64,-14.002 4.733,-17.905c-2.048,-1.378 -3.388,-3.629 -3.388,-6.179c0,-4.196 3.617,-7.598 8.078,-7.598c4.239,0 7.709,3.073 8.044,6.98c1.982,-0.363 4.125,-0.583 6.408,-0.699c-0.444,-1.458 -1.153,-2.795 -2.288,-3.624c0,0 0.114,-0.009 0.316,-0.009c0.538,0 1.704,0.066 3.026,0.556c0,0 0.268,-1.791 -0.742,-2.952c0,0 2.625,0.592 3.943,2.298c0,0 0.785,-1.128 0.518,-2.54c0,0 4.17,2.488 5.605,6.411c1.496,0.129 2.924,0.312 4.278,0.56c0.335,-3.907 3.808,-6.98 8.048,-6.98c4.459,0 8.078,3.401 8.078,7.598c0,2.551 -1.342,4.802 -3.391,6.18c3.094,3.901 4.734,9.627 4.734,17.904c0,16.283 -18.872,22.463 -28,22.463"/>
    <path fill="currentColor" d="m10.925,17.436c2.031,-1.723 4.487,-2.944 7.339,-3.777c0.001,-0.048 0.015,-0.092 0.015,-0.14c0,-2.534 -2.173,-4.588 -4.856,-4.588c-2.684,0 -4.858,2.054 -4.858,4.588c-0.001,1.669 0.951,3.114 2.36,3.917"/>
    <path fill="currentColor" d="m53.075,17.437c1.408,-0.804 2.36,-2.249 2.36,-3.918c0,-2.534 -2.175,-4.588 -4.856,-4.588c-2.686,0 -4.857,2.054 -4.857,4.588c0,0.048 0.013,0.092 0.014,0.14c2.853,0.833 5.308,2.054 7.339,3.778"/>
    <path fill="currentColor" d="m32.038,54.105c-2.295,0 -4.156,0.547 -4.156,1.22c0,0.092 0.033,0.265 0.099,0.265l8.096,0c0.077,0 0.118,-0.168 0.118,-0.265c-0.001,-0.672 -1.86,-1.22 -4.157,-1.22"/>
    <path fill="currentColor" d="m23.374,45.493c0,2.755 6.865,5.198 8.626,5.198s8.626,-2.443 8.626,-5.198c0,-3.46 -3.861,-4.127 -8.626,-4.127c-4.761,0 -8.626,0.667 -8.626,4.127"/>
    <path fill="currentColor" d="m57.323,31.613c-4.23,0.063 -8.443,0.237 -12.665,0.324c-4.22,0.094 -8.444,0.139 -12.663,0.131a424.25,424.25 0 0 1 -12.663,-0.159a393.251,393.251 0 0 1 -6.327,-0.231a317.682,317.682 0 0 1 -6.322,-0.323c-0.043,-0.004 -0.089,0.026 -0.098,0.068a0.086,0.086 0 0 0 0.069,0.109l0.015,0.003c2.358,0.526 4.734,0.916 7.119,1.23a1.089,1.089 0 0 0 -0.187,0.654c0,1.463 1.522,2.65 3.398,2.65c1.864,0 3.373,-1.173 3.393,-2.622c2.409,0.184 4.822,0.302 7.236,0.371c-4.183,1.525 -8.63,5.14 -8.63,11.426c0,11.505 5.217,13.862 13.05,13.862c7.831,0 13.047,-2.357 13.047,-13.862c0,-6.281 -4.438,-9.895 -8.617,-11.422a163.5,163.5 0 0 0 7.134,-0.35c0.038,1.438 1.538,2.597 3.392,2.597c1.873,0 3.396,-1.188 3.396,-2.65c0,-0.248 -0.059,-0.426 -0.141,-0.578c0.256,-0.029 0.514,-0.054 0.77,-0.086c1.049,-0.139 2.104,-0.277 3.15,-0.443l1.574,-0.248l1.572,-0.268l0.02,-0.004a0.094,0.094 0 0 0 0.078,-0.09c-0.002,-0.049 -0.046,-0.089 -0.1,-0.089m-13.728,13.632c0,10.381 -4.234,12.412 -11.547,12.412c-7.315,0 -11.55,-2.031 -11.55,-12.412c0,-7.665 7.522,-10.846 11.55,-10.846c4.025,0 11.547,3.181 11.547,10.846"/>
</svg>