<svg width="700.00pt" height="700.00pt"
    xmlns="http://www.w3.org/2000/svg" preserveAspectRatio="xMidYMid meet">
    <path stroke="null" fill="currentColor" d="m635.67336,218.1084c19.08088,-19.30121 30.04247,-44.91498 30.04247,-71.71854c0,-57.90363 -49.80638,-105.01093 -111.02603,-105.01093c-49.12335,0 -91.79092,31.04498 -105.98039,73.88883a542.48301,542.48301 0 0 0 -14.61913,-1.77368c-21.25116,-42.12776 -63.434,-67.66441 -65.38395,-68.82116l-42.20487,-25.1731l6.03714,31.80514a115.37762,115.37762 0 0 0 -19.54358,-6.57695l-64.46957,-14.54201l35.11014,40.37611l-0.80422,0c-3.4372,0 -5.36512,0.1983 -5.36512,0.1983l-50.52246,4.7592a113.96748,113.96748 0 0 0 -81.6005,-34.14067c-61.21965,0 -111.02603,47.10729 -111.02603,105.01093c0,26.80357 10.95057,52.40631 30.02043,71.70752c-30.14162,46.90899 -44.83786,110.53028 -44.83786,193.62905c0,189.93846 215.25477,268.77377 330.50019,268.77377s330.50019,-78.83531 330.50019,-268.77377c0,-83.09876 -14.69624,-146.70904 -44.82684,-193.61803m-369.60938,-109.14218c1.57538,1.14573 3.07365,2.5118 4.51684,4.06515c-6.63204,0.661 -13.05476,1.39912 -19.30121,2.23638a102.31184,102.31184 0 0 0 -14.09032,-27.53067l28.8747,21.22913m83.93603,550.22774c-100.54917,0 -308.46685,-68.09406 -308.46685,-247.47854c0,-91.185 18.06734,-154.25546 52.14191,-197.25353c-22.56215,-15.18098 -37.32449,-39.97951 -37.32449,-68.07202c0,-46.22596 39.84731,-83.70468 88.99268,-83.70468c46.69968,0 84.92753,33.85424 88.61812,76.89638c21.83505,-3.99905 45.44378,-6.42272 70.59484,-7.70065c-4.8914,-16.06231 -12.70222,-30.7916 -25.20615,-39.92442c0,0 1.2559,-0.09915 3.48127,-0.09915c5.92697,0 18.77241,0.7271 33.33645,6.12527c0,0 2.95247,-19.73086 -8.17437,-32.52122c0,0 28.91877,6.52187 43.43874,25.31631c0,0 8.64809,-12.42681 5.70664,-27.98235c0,0 45.93953,27.40948 61.74845,70.62789c16.48094,1.42115 32.21275,3.4372 47.12933,6.16934c3.69059,-43.04214 41.95149,-76.89638 88.66218,-76.89638c49.12335,0 88.99268,37.46771 88.99268,83.70468c0,28.10353 -14.78438,52.90206 -37.35754,68.08304c34.08559,42.97604 52.15293,106.05751 52.15293,197.24251c0,179.38449 -207.90665,247.46753 -308.46685,247.46753"/>
    <path stroke="null" fill="currentColor" d="m117.82362,189.55318c22.37486,-18.98173 49.43181,-32.43309 80.85136,-41.60997c0.01102,-0.5288 0.16525,-1.01353 0.16525,-1.54233c0,-27.91625 -23.93923,-50.5445 -53.49696,-50.5445c-29.56875,0 -53.519,22.62825 -53.519,50.5445c-0.01102,18.38683 10.47686,34.30592 25.99935,43.15231"/>
    <path stroke="null" fill="currentColor" d="m582.17639,189.5642c15.51148,-8.85741 25.99935,-24.7765 25.99935,-43.16333c0,-27.91625 -23.96126,-50.5445 -53.49696,-50.5445c-29.59078,0 -53.50798,22.62825 -53.50798,50.5445c0,0.5288 0.14322,1.01353 0.15423,1.54233c31.43057,9.17689 58.4765,22.62825 80.85136,41.62099"/>
    <path stroke="null" fill="currentColor" d="m350.41864,593.52357c-25.28326,0 -45.78529,6.02612 -45.78529,13.44034c0,1.01353 0.36355,2.91942 1.09065,2.91942l89.19099,0c0.84828,0 1.29997,-1.8508 1.29997,-2.91942c-0.01102,-7.4032 -20.49101,-13.44034 -45.79631,-13.44034"/>
    <path stroke="null" fill="currentColor" d="m254.97019,498.64798c0,30.35093 75.62946,57.26467 95.02982,57.26467s95.02982,-26.91373 95.02982,-57.26467c0,-38.11769 -42.53537,-45.46581 -95.02982,-45.46581c-52.45038,0 -95.02982,7.34812 -95.02982,45.46581"/>
    <path stroke="null" fill="currentColor" d="m628.97522,345.73656c-46.60053,0.69405 -93.01377,2.61095 -139.52616,3.5694c-46.49036,1.03557 -93.02479,1.53132 -139.50413,1.44318a4673.82354,4673.82354 0 0 1 -139.50413,-1.75165a4332.3177,4332.3177 0 0 1 -69.70249,-2.54485a3499.79873,3499.79873 0 0 1 -69.64741,-3.55839c-0.47372,-0.04407 -0.98048,0.28643 -1.07963,0.74913a0.94743,0.94743 0 0 0 0.76015,1.20082l0.16525,0.03305c25.97732,5.79477 52.15293,10.09127 78.4277,13.55051a11.99716,11.99716 0 0 0 -2.06012,7.2049c0,16.11739 16.76738,29.19418 37.43466,29.19418c20.53508,0 37.15924,-12.92256 37.37957,-28.88572c26.53917,2.02707 53.1224,3.32704 79.71665,4.08719c-46.08274,16.80043 -95.07389,56.6257 -95.07389,125.87651c0,126.74682 57.47398,152.71312 143.76758,152.71312c86.27157,0 143.73453,-25.9663 143.73453,-152.71312c0,-69.19572 -48.892,-109.00998 -94.93067,-125.83244a1801.22604,1801.22604 0 0 0 78.59295,-3.85584c0.41863,15.84198 16.94364,28.6103 37.36856,28.6103c20.63423,0 37.41262,-13.08781 37.41262,-29.19418c0,-2.73213 -0.64998,-4.6931 -1.55335,-6.36764c2.82027,-0.31948 5.66257,-0.5949 8.48284,-0.94743c11.55649,-1.53132 23.17908,-3.05162 34.70252,-4.88039l17.34024,-2.73213l17.31821,-2.95247l0.22033,-0.04407a1.03557,1.03557 0 0 0 0.8593,-0.9915c-0.02203,-0.53982 -0.50677,-0.98048 -1.10167,-0.98048m-151.23689,150.17929c0,114.36408 -46.64459,136.73895 -127.20952,136.73895c-80.58696,0 -127.24257,-22.37486 -127.24257,-136.73895c0,-84.4428 82.86741,-119.48684 127.24257,-119.48684c44.34211,0 127.20952,35.04404 127.20952,119.48684"/>
</svg>